<svg width="32" height="32" viewBox="0 0 32 32" fill="none" xmlns="http://www.w3.org/2000/svg">
  <!-- Background Circle -->
  <circle cx="16" cy="16" r="16" fill="#0A6B04"/>
  
  <!-- Book -->
  <path d="M8 12C8 10.8954 8.89543 10 10 10H22C23.1046 10 24 10.8954 24 12V20C24 21.1046 23.1046 22 22 22H10C8.89543 22 8 21.1046 8 20V12Z" fill="#FFFFFF"/>
  <path d="M9 12C9 11.4477 9.44772 11 10 11H22C22.5523 11 23 11.4477 23 12V20C23 20.5523 22.5523 21 22 21H10C9.44772 21 9 20.5523 9 20V12Z" fill="#F0F9FF"/>
  <path d="M11 13H21V15H11V13Z" fill="#0A6B04"/>
  <path d="M11 16H19V17H11V16Z" fill="#0A6B04"/>
  <path d="M11 18H17V19H11V18Z" fill="#0A6B04"/>
  
  <!-- Graduation Cap -->
  <path d="M12 8L16 6L20 8L16 10L12 8Z" fill="#FFFFFF"/>
  <path d="M10 8L16 5L22 8L16 11L10 8Z" fill="#1E40AF"/>
  <path d="M12 8L16 6L20 8L16 10L12 8Z" fill="#FFFFFF"/>
  <path d="M11 8L16 5L21 8L16 11L11 8Z" fill="#1E40AF"/>
  
  <!-- Tassel -->
  <circle cx="16" cy="8" r="1" fill="#F59E0B"/>
  <path d="M16 9L16 11" stroke="#F59E0B" stroke-width="1" stroke-linecap="round"/>
  
  <!-- Decorative Elements -->
  <circle cx="14" cy="14" r="0.5" fill="#0A6B04"/>
  <circle cx="18" cy="14" r="0.5" fill="#0A6B04"/>
  <circle cx="16" cy="16" r="0.5" fill="#0A6B04"/>
</svg> 